<?xml version="1.0" standalone="no"?>
<!DOCTYPE svg PUBLIC "-//W3C//DTD SVG 20010904//EN"
 "http://www.w3.org/TR/2001/REC-SVG-20010904/DTD/svg10.dtd">
<svg version="1.0" xmlns="http://www.w3.org/2000/svg"
 width="500.000000pt" height="500.000000pt" viewBox="0 0 500.000000 500.000000"
 preserveAspectRatio="xMidYMid meet">

<g transform="translate(0.000000,500.000000) scale(0.100000,-0.100000)"
fill="#000000" stroke="none">
<path d="M800 4494 c-41 -18 -86 -58 -105 -95 -8 -14 -27 -124 -44 -245 -17
-120 -62 -448 -101 -729 -64 -461 -70 -516 -60 -572 12 -73 32 -123 71 -180
l29 -42 0 -1000 c0 -682 3 -1009 11 -1028 14 -38 57 -83 96 -99 49 -21 3587
-21 3637 0 46 19 74 45 97 88 19 36 19 70 19 1061 l0 1024 31 67 c52 112 52
120 -55 896 -53 382 -102 711 -108 730 -17 52 -54 96 -102 119 -42 21 -49 21
-1712 21 -1469 -1 -1673 -3 -1704 -16z m460 -546 c0 -238 3 -443 6 -456 6 -22
7 -22 38 9 17 17 43 37 58 45 l28 14 2 408 3 407 325 0 325 0 5 -365 c4 -283
8 -365 18 -364 6 1 35 2 62 3 l50 1 0 365 0 365 325 0 325 0 0 -359 0 -358 38
-7 c20 -3 49 -6 65 -6 l27 0 0 365 0 365 325 0 325 0 0 -387 c0 -214 3 -398 6
-409 7 -25 99 -88 114 -79 6 4 10 159 10 441 l0 434 205 0 c205 0 206 0 230
-25 14 -13 25 -30 25 -37 0 -7 5 -43 10 -81 98 -676 181 -1311 177 -1353 -10
-103 -83 -201 -187 -252 -46 -23 -68 -27 -135 -26 -66 0 -90 5 -136 27 -89 43
-178 155 -179 225 0 34 -14 26 -37 -20 -26 -53 -119 -184 -186 -262 -36 -42
-44 -55 -26 -46 53 28 108 74 140 116 31 42 35 44 46 27 69 -96 197 -175 313
-194 101 -16 168 -4 308 58 9 4 12 -188 12 -940 0 -846 -2 -947 -16 -961 -14
-14 -126 -16 -1080 -16 l-1064 0 0 485 0 485 -57 74 c-53 68 -75 89 -72 69 1
-5 1 -257 0 -560 l-1 -553 -405 0 -405 0 0 694 c0 566 2 696 13 705 9 7 109
12 301 13 l287 3 -43 62 -43 63 -256 0 c-248 0 -257 -1 -299 -23 -30 -16 -51
-37 -67 -67 l-23 -43 0 -704 0 -703 -166 0 c-95 0 -174 4 -185 10 -19 10 -19
32 -19 954 l0 944 63 -26 c77 -31 202 -35 288 -9 74 22 171 88 219 148 l38 48
42 -50 c49 -58 125 -111 198 -139 l51 -20 12 21 c6 11 26 38 45 59 l35 38 -52
11 c-111 24 -190 88 -237 189 -21 46 -25 72 -28 175 l-4 122 -47 23 c-27 13
-56 31 -65 39 -16 14 -17 3 -20 -154 -3 -192 -14 -226 -91 -304 -153 -154
-416 -116 -513 73 -51 101 -53 78 55 858 92 659 101 716 121 732 20 16 46 18
226 18 l204 0 0 -432z"/>
<path d="M2048 2976 c-6 -122 -15 -156 -65 -247 -2 -3 17 -7 43 -7 70 -3 131
-44 199 -134 27 -35 55 -58 90 -74 87 -39 113 -40 181 -3 90 50 236 161 329
252 117 114 135 140 135 200 0 47 -1 48 -42 66 -91 40 -85 45 -90 -72 -4 -82
-10 -114 -30 -159 -36 -78 -87 -130 -160 -164 -164 -75 -350 -8 -431 156 -19
38 -22 65 -25 178 l-4 132 -62 0 -63 0 -5 -124z"/>
<path d="M3042 2130 c-18 -16 -49 -42 -68 -56 -48 -37 -33 -44 94 -44 l102 0
0 -350 0 -350 -237 -2 c-297 -2 -305 -3 -330 -16 -49 -27 -23 -82 48 -102 46
-13 1132 -13 1179 0 45 12 97 65 110 111 13 45 13 673 0 719 -11 41 -61 94
-103 109 -18 7 -161 11 -395 11 l-368 0 -32 -30z m759 -110 c18 -10 19 -25 19
-340 0 -315 -1 -330 -19 -340 -12 -6 -112 -10 -255 -10 l-236 0 0 350 0 350
236 0 c143 0 243 -4 255 -10z"/>
<path d="M1775 1445 c-23 -22 -25 -32 -25 -120 0 -82 3 -98 20 -115 11 -11 31
-20 45 -20 14 0 34 9 45 20 17 17 20 33 20 118 0 103 -3 113 -37 131 -31 16
-41 14 -68 -14z"/>
</g>
</svg>
